<svg xmlns="http://www.w3.org/2000/svg" viewBox="0 0 160 160">
  <defs>
    <style>
      .a {
        fill: #23cb97;
      }
    </style>
  </defs>
  <g>
    <path class="a" d="M94.22,75.7c-4.18,0-7.56,3.87-7.56,8.64S90,93,94.22,93s7.55-3.86,7.55-8.63S98.39,75.7,94.22,75.7Z"/>
    <path class="a" d="M66.15,75.7c-4.18,0-7.56,3.87-7.56,8.64S62,93,66.15,93s7.55-3.86,7.55-8.63S70.32,75.7,66.15,75.7Z"/>
    <path class="a" d="M80,0a80,80,0,1,0,80,80A80,80,0,0,0,80,0ZM99.61,114.56l-3.54-4.71a43.25,43.25,0,0,0,18.66-12.56c-7,5.29-17.55,10.8-34.55,10.8s-27.55-5.51-34.54-10.8a43.22,43.22,0,0,0,18.65,12.56l-3.54,4.71s-16.92-.1-28.07-13c1.9-31.47,13-47.5,13-47.5S55,46.63,67.23,45.47l1,2.11A42.63,42.63,0,0,0,47.79,58.43c8.74-4.46,17.36-8.64,32.39-8.64s23.65,4.18,32.39,8.64c-5.07-4.56-9.92-8.26-20.49-10.85l1.06-2.11c11.69.89,21.59,8.64,21.59,8.64s11,16,13,47.5C116.54,114.46,99.61,114.56,99.61,114.56Z"/>
  </g>
</svg>
