<svg xmlns="http://www.w3.org/2000/svg" viewBox="0 0 154 154">
  <defs>
    <style>
      .a {
        fill: #23cb97;
      }
    </style>
  </defs>
  <path class="a" d="M77,0a77,77,0,1,0,77,77A77,77,0,0,0,77,0ZM97,136.14c-3.19.61-4.33-1.34-4.33-3,0-2.07.08-8.85.08-17.25,0-5.86-2-9.69-4.27-11.64,14-1.55,28.72-6.87,28.72-31a24.34,24.34,0,0,0-6.46-16.87c.64-1.59,2.81-8-.63-16.64,0,0-5.28-1.69-17.28,6.45a59.49,59.49,0,0,0-31.47,0c-12-8.13-17.29-6.44-17.29-6.44-3.43,8.65-1.27,15-.62,16.64A24.35,24.35,0,0,0,37,73.2c0,24.1,14.68,29.49,28.64,31.08-1.79,1.57-3.42,4.34-4,8.4-3.58,1.61-12.69,4.38-18.3-5.22,0,0-3.33-6-9.64-6.48,0,0-6.15-.07-.43,3.82,0,0,4.12,1.94,7,9.2,0,0,3.69,11.21,21.18,7.41,0,5.25.09,10.21.09,11.7,0,1.66-1.15,3.61-4.3,3a62.87,62.87,0,1,1,39.79,0Z"/>
</svg>
