<svg xmlns="http://www.w3.org/2000/svg" viewBox="0 0 151.87 148.11">
  <defs>
    <style>
      .a {
        fill: #23cb97;
      }
    </style>
  </defs>
  <path class="a" d="M75.92,0a75.93,75.93,0,0,0-24,148c3.8.7,5.19-1.65,5.19-3.65,0-1.81-.07-7.8-.11-14.14-21.11,4.59-25.58-9-25.58-9C28,112.46,23,110.13,23,110.13c-6.9-4.71.53-4.62.53-4.62,7.62.53,11.63,7.83,11.63,7.83,6.78,11.6,17.78,8.24,22.1,6.3.69-4.9,2.66-8.25,4.82-10.14C45.22,107.58,27.49,101.06,27.49,72A29.41,29.41,0,0,1,35.3,51.59c-.78-1.92-3.39-9.65.75-20.1,0,0,6.36-2,20.88,7.79a71.79,71.79,0,0,1,38,0c14.48-9.84,20.86-7.79,20.86-7.79,4.15,10.46,1.54,18.17.76,20.09A29.35,29.35,0,0,1,124.36,72c0,29.17-17.76,35.59-34.67,37.47,2.73,2.36,5.15,7,5.15,14,0,10.15-.1,18.34-.1,20.84,0,2,1.38,4.38,5.23,3.64a75.94,75.94,0,0,0-24-148Z"/>
</svg>
