<svg xmlns="http://www.w3.org/2000/svg" viewBox="0 0 160 156.03">
  <defs>
    <style>
      .a {
        fill: #23cb97;
      }
    </style>
  </defs>
  <path class="a" d="M80,0A80,80,0,0,0,54.7,155.89c4,.73,5.46-1.74,5.46-3.85,0-1.9-.07-8.21-.11-14.89C37.81,142,33.1,127.72,33.1,127.72c-3.64-9.24-8.88-11.7-8.88-11.7-7.27-5,.55-4.86.55-4.86,8,.56,12.26,8.24,12.26,8.24,7.14,12.22,18.73,8.69,23.29,6.64.72-5.16,2.79-8.69,5.07-10.68C47.64,113.33,29,106.47,29,75.82a31,31,0,0,1,8.23-21.47c-.82-2-3.57-10.17.79-21.17,0,0,6.7-2.15,22,8.2a75.67,75.67,0,0,1,40,0c15.26-10.36,22-8.2,22-8.2,4.37,11,1.62,19.14.8,21.16A30.87,30.87,0,0,1,131,75.82c0,30.73-18.7,37.5-36.52,39.48,2.88,2.48,5.42,7.34,5.42,14.8,0,10.69-.1,19.32-.1,22,0,2.13,1.45,4.62,5.51,3.84A80,80,0,0,0,80,0Z"/>
</svg>
