<svg xmlns="http://www.w3.org/2000/svg" viewBox="0 0 157 157">
  <defs>
    <style>
      .a {
        fill: #23cb97;
      }
    </style>
  </defs>
  <g>
    <path class="a" d="M78.5,0A78.5,78.5,0,1,0,157,78.5,78.58,78.58,0,0,0,78.5,0Zm38.18,65.42h0c-.93,1-2.43,1.41-4.57,1.41h-7.94L98,84.82h9.8l.33,1a18.46,18.46,0,0,1,.83,5.58,5.66,5.66,0,0,1-1.37,4.12c-1,1-2.46,1.42-4.6,1.42H93.8l-8.14,23.61-1.1,0a25.33,25.33,0,0,1-7.26-.92,5,5,0,0,1-3.38-3.18,7.54,7.54,0,0,1,.4-4.57L79.43,97H63l-8.13,23.61-1.1,0a24.7,24.7,0,0,1-7.27-.93,4.92,4.92,0,0,1-3.37-3.19,7.38,7.38,0,0,1,.38-4.52l5.13-15H40l-.3-1.1a20.63,20.63,0,0,1-.82-5.22c0-2.07.44-3.53,1.35-4.45a5.16,5.16,0,0,1,3.86-1.39h8.65l6.19-18H49.21l-.32-1.08A18.94,18.94,0,0,1,48,60.5c0-2.09.44-3.54,1.34-4.45a5.26,5.26,0,0,1,3.93-1.39H63.2l7.3-21.27,1.1,0a24.38,24.38,0,0,1,7.33,1,5.05,5.05,0,0,1,3.33,3.16,7,7,0,0,1-.41,4.55L77.5,54.66H94l7.3-21.27,1.1,0a24.38,24.38,0,0,1,7.33,1,5,5,0,0,1,3.33,3.15,6.86,6.86,0,0,1-.42,4.57l-4.34,12.55h8.51l.34,1a17.41,17.41,0,0,1,.91,5.61A5.63,5.63,0,0,1,116.68,65.42Z"/>
    <polygon class="a" points="87.69 69.33 82.53 84.32 69.24 84.32 74.4 69.33 87.69 69.33"/>
  </g>
</svg>
