<svg xmlns="http://www.w3.org/2000/svg" viewBox="0 0 154 154">
  <defs>
    <style>
      .a {
        fill: #23cb97;
      }
    </style>
  </defs>
  <g>
    <polygon class="a" points="66.75 85.89 82.06 85.89 86.1 68.1 70.79 68.1 66.75 85.89"/>
    <path class="a" d="M77,0a77,77,0,1,0,77,77A77,77,0,0,0,77,0Zm38.54,62.9a6,6,0,0,1-2.13,4q-1.68,1.24-5.25,1.24H99.85l-4,17.8h11.11a4.23,4.23,0,0,1,3.69,1.55q1.13,1.56.58,5.28l-.85,5.36H93.71l-5.13,22.53H81.13a4.79,4.79,0,0,1-2.22-.54,4.91,4.91,0,0,1-1.75-1.52,5.94,5.94,0,0,1-1-2.25,6.61,6.61,0,0,1,0-2.76L80,98.09H64.42l-3.8,16.32a7,7,0,0,1-2.76,4.77,8.38,8.38,0,0,1-4.78,1.44H45.47l5.44-22.53H42a4.35,4.35,0,0,1-3.73-1.55q-1.16-1.56-.62-5.28l1.09-5.36H53.08l4-17.8H41.2l1-7a6,6,0,0,1,2.13-4q1.66-1.24,5.25-1.24h9.63l4-16.71a6.92,6.92,0,0,1,2.53-4.27,7.4,7.4,0,0,1,4.7-1.55h7.53L72.66,55.91H88.51l4.81-22.53h7.31a5.38,5.38,0,0,1,4.19,1.71,4.86,4.86,0,0,1,1.09,4.35L102.1,55.91h14.45Z"/>
  </g>
</svg>
