<svg xmlns="http://www.w3.org/2000/svg" viewBox="0 0 154 154">
  <defs>
    <style>
      .a {
        fill: #23cb97;
      }
    </style>
  </defs>
  <g>
    <path class="a" d="M77,0a77,77,0,1,0,77,77A77,77,0,0,0,77,0Zm37.12,62.86c-.64.65-1.81,1-3.51,1h-9l-7.23,21h10.81a16.87,16.87,0,0,1,.77,5.12A4.23,4.23,0,0,1,105,93c-.64.65-1.81,1-3.52,1H91.23l-8.12,23.58a24.28,24.28,0,0,1-6.81-.84,3.46,3.46,0,0,1-2.43-2.18,6,6,0,0,1,.35-3.61L80,94H60.41l-8.13,23.58a24.4,24.4,0,0,1-6.81-.84A3.5,3.5,0,0,1,43,114.55a6,6,0,0,1,.35-3.61l5.82-17H39.68a19,19,0,0,1-.76-4.83,4.89,4.89,0,0,1,.92-3.41,3.79,3.79,0,0,1,2.79-.93h9.72l7.22-21H48.83A17.43,17.43,0,0,1,48,59a4.83,4.83,0,0,1,.93-3.41,3.84,3.84,0,0,1,2.84-.93h11l7.29-21.23a23.21,23.21,0,0,1,6.84.87,3.63,3.63,0,0,1,2.43,2.2A5.44,5.44,0,0,1,79,40.06l-5,14.6H93.6l7.29-21.23a23.21,23.21,0,0,1,6.84.87,3.65,3.65,0,0,1,2.43,2.2,5.39,5.39,0,0,1-.39,3.56l-5,14.6h9.53a15.5,15.5,0,0,1,.83,5.13A4.22,4.22,0,0,1,114.12,62.86Z"/>
    <polygon class="a" points="63.54 84.82 83.17 84.82 90.4 63.83 70.77 63.83 63.54 84.82"/>
  </g>
</svg>
