<svg xmlns="http://www.w3.org/2000/svg" viewBox="0 0 152 108">
  <defs>
    <style>
      .a {
        fill: #23cb97;
      }
    </style>
  </defs>
  <path class="a" d="M146.71,3.05A13.93,13.93,0,0,0,138,0H14A13.82,13.82,0,0,0,9,.91,14,14,0,0,0,0,14V94a14,14,0,0,0,4.59,10.36c.33.3.68.59,1,.86l.55.39c.37.25.75.48,1.15.7A13.93,13.93,0,0,0,14,108H138a13.93,13.93,0,0,0,6.67-1.69c.4-.22.78-.45,1.15-.7l.55-.39c.36-.27.71-.56,1-.86A14,14,0,0,0,152,94V14A14,14,0,0,0,146.71,3.05ZM13.47,10.91H140.18l.1.16c-9.63,13.44-29.65,36.55-50,43.9a35.94,35.94,0,0,1-12.21,2.32A40,40,0,0,1,64,54.45C43.18,46.58,22.68,24.25,13.23,11.9Zm-3,76V25.13C18.89,35,34.7,51.61,52.63,60.86Zm9,7.4L65.35,66a47.48,47.48,0,0,0,12.73,1.84,43.62,43.62,0,0,0,10.53-1.34l42.1,27.82Zm122-6.06L101.26,61.62c16.32-8.3,30.72-23.34,40.24-35Z"/>
</svg>
