<svg xmlns="http://www.w3.org/2000/svg" viewBox="0 0 154 154">
  <defs>
    <style>
      .a {
        fill: #23cb97;
      }
    </style>
  </defs>
  <g>
    <path class="a" d="M78.45,86.59a33,33,0,0,1-8.86-1.28L37.67,105h77.39L85.77,85.66A30.23,30.23,0,0,1,78.45,86.59Z"/>
    <path class="a" d="M68.62,77.31a27.7,27.7,0,0,0,9.83,2,25,25,0,0,0,8.49-1.62c14.15-5.11,28.08-21.18,34.78-30.53l-.07-.12H33.5c0,.23-.11.46-.17.69C39.91,56.3,54.17,71.84,68.62,77.31Z"/>
    <path class="a" d="M31.44,56.92v43l29.3-18.1C48.27,75.34,37.27,63.76,31.44,56.92Z"/>
    <path class="a" d="M94.57,82.3l28,18.5V58C115.94,66.06,105.93,76.53,94.57,82.3Z"/>
    <path class="a" d="M77,0a77,77,0,1,0,77,77A77,77,0,0,0,77,0Zm52.87,104.83a9.7,9.7,0,0,1-3.19,7.2c-.23.21-.48.41-.73.6l-.38.27a8.15,8.15,0,0,1-.8.49,9.69,9.69,0,0,1-4.64,1.18H33.87a9.69,9.69,0,0,1-4.64-1.18,8.15,8.15,0,0,1-.8-.49l-.38-.27c-.25-.19-.5-.39-.73-.6a9.7,9.7,0,0,1-3.19-7.2V49.17a9.68,9.68,0,0,1,6.29-9.1,9.61,9.61,0,0,1,3.45-.64h86.26a9.76,9.76,0,0,1,3.47.64,9.93,9.93,0,0,1,2.59,1.49,9.7,9.7,0,0,1,3.68,7.61Z"/>
  </g>
</svg>
