<svg xmlns="http://www.w3.org/2000/svg" viewBox="0 0 160 160">
  <defs>
    <style>
      .a {
        fill: #23cb97;
      }
    </style>
  </defs>
  <g>
    <path class="a" d="M80,0a80,80,0,1,0,80,80A80.09,80.09,0,0,0,80,0Zm55.87,107.83a12.78,12.78,0,0,1-4.17,9.43c-.3.27-.62.53-.94.77l-.5.36c-.34.22-.68.43-1,.63a12.73,12.73,0,0,1-6.09,1.55H36.87A12.76,12.76,0,0,1,30.8,119c-.37-.21-.71-.42-1-.64l-.47-.33a11.73,11.73,0,0,1-1-.81,12.74,12.74,0,0,1-4.17-9.42V52.18a12.69,12.69,0,0,1,6.08-10.87,12.66,12.66,0,0,1,6.65-1.87h86.26a12.75,12.75,0,0,1,12.74,12.74Z"/>
    <path class="a" d="M60.74,84.87l-24.8,15.31V63.93l1.73,1.86c5,5.36,12.84,12.87,21.67,18.23Z"/>
    <path class="a" d="M124.07,65.12V101L100.52,85.44l1.35-.82c6.71-4.06,13.6-10,20.46-17.57Z"/>
    <path class="a" d="M119.73,108.52H38.91l33.6-20.74.42.11a32.55,32.55,0,0,0,8.52,1.21,30.25,30.25,0,0,0,7-.87l.43-.11Z"/>
    <path class="a" d="M121.86,51.53l-1.26,1.61c-4.85,6.22-17.6,21.22-31.17,26.13a23.54,23.54,0,0,1-8,1.52A26.22,26.22,0,0,1,72.34,79l-.18-.07C57.85,73.49,44.09,57.84,40.21,53.17l-1.36-1.64Z"/>
  </g>
</svg>
