<svg xmlns="http://www.w3.org/2000/svg" viewBox="0 0 160 160">
  <defs>
    <style>
      .a {
        fill: #23cb97;
      }
    </style>
  </defs>
  <path class="a" d="M97.77,104.2a1.69,1.69,0,0,1,0,2.76Q92.24,112.5,80,112.5T62.23,107a1.69,1.69,0,0,1,0-2.76,1.93,1.93,0,0,1,2.68,0q4.29,4.36,15.09,4.37t15.09-4.37a1.93,1.93,0,0,1,2.68,0ZM70.36,88a7.92,7.92,0,0,1-8,7.94,7.81,7.81,0,0,1-5.67-2.32A7.57,7.57,0,0,1,54.38,88a7.68,7.68,0,0,1,2.36-5.72A7.81,7.81,0,0,1,62.41,80,7.6,7.6,0,0,1,68,82.37,7.81,7.81,0,0,1,70.36,88Zm35.26,0a7.57,7.57,0,0,1-2.36,5.62A7.81,7.81,0,0,1,97.59,96a7.92,7.92,0,0,1-8-7.94A7.81,7.81,0,0,1,92,82.37,7.6,7.6,0,0,1,97.59,80a7.81,7.81,0,0,1,5.67,2.32A7.68,7.68,0,0,1,105.62,88ZM128,77.32A10.67,10.67,0,0,0,117.32,66.7a10.51,10.51,0,0,0-7.68,3.21q-11.61-8-27.76-8.57L87.5,36.07l17.86,4A7.95,7.95,0,0,0,119,45.67a8,8,0,0,0,0-11.34A7.7,7.7,0,0,0,113.3,32a7.58,7.58,0,0,0-7.14,4.47L86.43,32.05c-1.13-.29-1.88.18-2.23,1.43L78,61.34Q62,62,50.45,70a10.79,10.79,0,0,0-15.36-.18A10.24,10.24,0,0,0,32,77.32,10.38,10.38,0,0,0,33.62,83,10.61,10.61,0,0,0,38,87a22.87,22.87,0,0,0-.54,5q0,12.69,12.5,21.7t30.09,9q17.68,0,30.18-9T122.77,92a18.68,18.68,0,0,0-.63-5.08A10.59,10.59,0,0,0,126.43,83,10.43,10.43,0,0,0,128,77.32ZM160,80a78.14,78.14,0,0,1-6.34,31.07,78.54,78.54,0,0,1-42.59,42.59,79.3,79.3,0,0,1-62.14,0A78.54,78.54,0,0,1,6.34,111.07a79.3,79.3,0,0,1,0-62.14A78.54,78.54,0,0,1,48.93,6.34a79.3,79.3,0,0,1,62.14,0,78.54,78.54,0,0,1,42.59,42.59A78.14,78.14,0,0,1,160,80Z"/>
</svg>
