<svg xmlns="http://www.w3.org/2000/svg" viewBox="0 0 327.498 282.8">
  <g id="Logo" transform="translate(-31.501 -140.96)">
    <g id="Group_8" data-name="Group 8" transform="translate(139.086 215.82)">
      <path id="Path_13" data-name="Path 13" d="M315.178,264.494l-5.257-3.34a47.085,47.085,0,0,1-10.6,11.625c-10.488,7.536-24.32,12.134-39.5,12.134-15.865,0-30.263-5.012-40.9-13.158l-.023.043a46.661,46.661,0,0,1-9.4-10.644l-5.257,3.34a53.178,53.178,0,0,0,11.923,13.1,48.138,48.138,0,0,0-3.33,17.635c0,26.285,20.89,47.593,46.659,47.593s46.659-21.308,46.659-47.593a48.158,48.158,0,0,0-3.225-17.375A53.307,53.307,0,0,0,315.178,264.494ZM259.488,333.7c-20.8,0-37.716-17.258-37.716-38.471a39.164,39.164,0,0,1,1.319-10.07,80.467,80.467,0,0,0,72.875.3,39.245,39.245,0,0,1,1.238,9.766C297.2,316.443,280.285,333.7,259.488,333.7Z" transform="translate(-204.236 -261.154)" fill="#fff"/>
      <g id="Group_7" data-name="Group 7" transform="translate(42.245 32.868)">
        <path id="Path_14" data-name="Path 14" d="M285.071,340.46a13.27,13.27,0,1,1,13.007-13.267,13.154,13.154,0,0,1-13.007,13.267" transform="translate(-272.064 -313.926)" fill="#e54040"/>
        <path id="Path_15" data-name="Path 15" d="M289.645,337.422a5.564,5.564,0,1,1,5.454-5.562,5.515,5.515,0,0,1-5.454,5.563" transform="translate(-276.638 -318.592)" fill="#1d3247"/>
      </g>
    </g>
    <path id="Path_16" data-name="Path 16" d="M351.213,325.54H311.9c-1.145-.962-2.2-1.763-3.17-2.5-1.479-1.127-2.689-2.174-4.245-3.525a62.379,62.379,0,0,0-6.161-4.923,222.669,222.669,0,0,0,1.279-25.148,7.78,7.78,0,0,0,2.411.385h44.814a7.785,7.785,0,1,0,0-15.571H302.017a7.739,7.739,0,0,0-3.31.747,4.413,4.413,0,0,0-.139-.6l.2-.574-.017-.84a104.943,104.943,0,0,0-2.015-18.461c1.273-1.328,2.514-2.968,3.338-3.764l12-11.581h42.87a.031.031,0,0,0,.021-.008c7.8-6.864,3.041-15.563-3.751-15.563H305.784l-14.107,13.617a103.338,103.338,0,0,0-12.364-22.743,110.091,110.091,0,0,0,2.06-36.008,105.367,105.367,0,0,0-11.26-37.511c.262,19.591-3.617,32.858-7.319,41.46-1.664,3.866-3.444,7.146-4.267,10.448a104.177,104.177,0,0,0-128.343.413c-.929-2.727-2.373-5.512-3.743-8.7-3.7-8.6-7.581-21.869-7.319-41.459a105.355,105.355,0,0,0-11.26,37.511,110.138,110.138,0,0,0,1.7,34.337,103.276,103.276,0,0,0-11.621,21.27L84.716,223.481H39.286c-6.792,0-11.553,8.7-3.75,15.563a.031.031,0,0,0,.021.008H78.426l12,11.582c.6.582,1.429,1.616,2.327,2.649a104.9,104.9,0,0,0-2.268,19.7l-.017.84.143.408c-.022.062-.05.12-.07.183a7.761,7.761,0,0,0-2.057-.284H43.669a7.785,7.785,0,0,0,0,15.571H88.482a7.808,7.808,0,0,0,1.023-.075,224.215,224.215,0,0,0,1.363,25.742c-1.987,1.472-4.255,3.5-4.856,4.02-1.556,1.351-2.767,2.4-4.246,3.525-.973.741-2.024,1.542-3.17,2.5H39.286a7.785,7.785,0,1,0,0,15.571H81.571a7.787,7.787,0,0,0,5.384-2.162A45.274,45.274,0,0,1,91.2,335.3c.7-.532,1.441-1.1,2.225-1.731,1.4,8.11,3.261,16.975,5.726,26.551,2.133,8.281,9.494,24.148,10.252,25.773l.032.071a4.361,4.361,0,0,0,7.558.666c.192-.229.536-.623.993-1.15,3.5-4.034,7.313-8.561,10.531-12.908.606,7.218,1.512,13.535,2.849,17.624,2.6,7.969,15.52,21.678,20.028,26.3a4.465,4.465,0,0,0,3.626,1.832,4.288,4.288,0,0,0,4.274-3.558c1.261-1.815,4.9-6.146,7.647-9.413,2.7-3.214,4.775-5.709,6.365-7.689.148.237.291.478.45.709,4.513,6.55,12.721,18.106,16.04,22.77a6.207,6.207,0,0,0,5.041,2.619h.012a6.213,6.213,0,0,0,5.046-2.643c3.232-4.581,10.984-15.566,15.747-22.282.174-.245.33-.5.493-.754,1.544,1.911,3.512,4.278,6.029,7.272,2.746,3.267,6.386,7.6,7.646,9.412a4.288,4.288,0,0,0,4.273,3.558,4.469,4.469,0,0,0,3.619-1.822c4.5-4.61,17.428-18.326,20.036-26.306,1.336-4.089,2.242-10.406,2.849-17.624,3.219,4.347,7.032,8.875,10.533,12.91.458.527.8.92.993,1.149a4.362,4.362,0,0,0,7.558-.667c.01-.024.021-.047.031-.07.756-1.62,8.119-17.491,10.252-25.774,2.556-9.928,4.465-19.1,5.881-27.447,1.256,1.072,2.4,1.948,3.458,2.751a45.258,45.258,0,0,1,4.246,3.526,7.787,7.787,0,0,0,5.384,2.161h42.284a7.785,7.785,0,1,0,0-15.571ZM117.167,386.361a4.321,4.321,0,0,0,.351-.758A4.107,4.107,0,0,1,117.167,386.361Zm-2.619-10.272c-2.428-5.524-5.736-13.432-6.95-18.144-7.663-29.759-9.294-52.62-9.331-66.475A109.817,109.817,0,0,0,120.891,320l-.277,36.571a2.121,2.121,0,0,0,2.152,2.107h4.182C125.525,362.154,121.372,367.989,114.548,376.089Zm55.2,11.8c-1.215,2.02-6.149,7.89-9.482,11.855-2.608,3.1-4.534,5.407-5.949,7.176-6.7-7.211-13.354-15.428-14.663-19.432-1.814-5.55-2.756-16.77-3.2-28.81h3.45a2.165,2.165,0,0,0,2.195-2.105l.235-21.435a110.03,110.03,0,0,0,21.065,8.711l-.179,13.629a1.73,1.73,0,0,0,.541.736,2.457,2.457,0,0,0,1.629.465h3.738C169.619,369.536,170.04,381.926,169.752,387.886Zm40.8-.527a11.19,11.19,0,0,1-2.015,6.431c-3.937,5.552-9.917,14.02-13.7,19.382-3.915-5.511-10.177-14.355-13.894-19.749a10.381,10.381,0,0,1-1.791-5.845v-28.9h3.509c1.211,0,2.2-.535,2.212-1.2l.169-9.522q4.748.415,9.579.422a109.919,109.919,0,0,0,15.932-1.163Zm38.906.126c-1.367,4.18-8.561,12.829-14.668,19.425-1.414-1.768-3.338-4.07-5.944-7.169-3.333-3.965-8.267-9.835-9.481-11.855-.058-1.188-.087-2.639-.093-4.276v-1.553c.045-10.593.883-27.534,1.385-36.811a109.934,109.934,0,0,0,25.593-9.759l.122,21.011a2.178,2.178,0,0,0,2.217,2.106h4.075C252.216,370.67,251.273,381.923,249.455,387.485Zm10.7-72.726a105.323,105.323,0,0,1-123.673,5.775,100.494,100.494,0,0,1-36.641-48.2,94.813,94.813,0,0,1,189.545,0A100.4,100.4,0,0,1,260.16,314.76ZM271.6,385.6a4.341,4.341,0,0,0,.353.761A4.124,4.124,0,0,1,271.6,385.6Zm9.919-27.657c-1.213,4.712-4.52,12.619-6.948,18.142-8.227-9.777-11.357-14.848-12.431-17.483H265.9a2.134,2.134,0,0,0,2.176-2.108l-.653-35.681a109.839,109.839,0,0,0,23.439-29.152C290.815,305.506,289.16,328.252,281.514,357.945Z" transform="translate(0 0)" fill="#fff"/>
  </g>
</svg>
